<?xml version="1.0" encoding="utf-8"?>
<!-- Generator: Adobe Illustrator 28.3.0, SVG Export Plug-In . SVG Version: 6.00 Build 0)  -->
<svg version="1.1" xmlns="http://www.w3.org/2000/svg" xmlns:xlink="http://www.w3.org/1999/xlink" x="0px" y="0px"
	 viewBox="0 0 211.8 213.8" style="enable-background:new 0 0 211.8 213.8;" xml:space="preserve">
<style type="text/css">
	.st0{fill:#FFFFFF;}
	.st1{fill:#345D9D;}
	.st2{display:none;}
	.st3{display:inline;}
	.st4{fill:#F7931A;}
	.st5{fill:#343434;}
	.st6{fill:#8C8C8C;}
	.st7{fill:#3C3C3B;}
	.st8{fill:#141414;}
	.st9{fill:#393939;}
</style>
<g id="ltc">
	<circle class="st0" cx="106.2" cy="106.9" r="92.9"/>
	<path class="st1" d="M106.2,2.7C48.7,2.7,2,49.3,2,106.9s46.7,104.2,104.2,104.2s104.2-46.7,104.2-104.2l0,0l0,0
		C210.6,49.5,164.2,2.8,106.8,2.7c0,0,0,0,0,0H106.2z M108,110.4L97.1,147h58c1.6-0.1,3,1.2,3,2.8c0,0,0,0,0,0v1l-5,17.4
		c-0.5,1.7-2,2.8-3.8,2.8H60.5l14.9-50.7l-16.7,5l3.8-11.6l16.7-5l20.9-71.2c0.5-1.7,2-2.8,3.8-2.8h22.5c1.6-0.1,3,1.2,3,2.8
		c0,0,0,0,0,0v1l-17.7,60.1l16.7-5l-3.5,12.1L108,110.4z"/>
</g>
<g id="btc" class="st2">
	<g id="Layer_x0020_1_00000008134065632099928620000012295336178448141992_" class="st3">
		<g id="_1421344023328_00000093147471215435477390000016056114443094640779_">
			<path class="st4" d="M207.3,132c-13.9,55.8-70.5,89.8-126.3,75.9C25.2,194-8.8,137.4,5.1,81.6C19,25.8,75.6-8.2,131.4,5.7
				C187.3,19.6,221.3,76.2,207.3,132L207.3,132L207.3,132z"/>
			<path class="st0" d="M152.2,92c2.1-13.9-8.5-21.3-22.9-26.3l4.7-18.8L122.5,44L118,62.3c-3-0.8-6.1-1.5-9.2-2.2l4.6-18.4
				l-11.4-2.9l-4.7,18.8c-2.5-0.6-4.9-1.1-7.3-1.7l0-0.1L74.2,52l-3,12.2c0,0,8.5,1.9,8.3,2.1c4.6,1.2,5.5,4.2,5.3,6.7l-5.3,21.4
				c0.3,0.1,0.7,0.2,1.2,0.4c-0.4-0.1-0.8-0.2-1.2-0.3l-7.5,30c-0.6,1.4-2,3.5-5.2,2.7c0.1,0.2-8.3-2.1-8.3-2.1l-5.7,13.1l14.9,3.7
				c2.8,0.7,5.5,1.4,8.2,2.1l-4.7,19l11.4,2.9l4.7-18.8c3.1,0.8,6.2,1.6,9.1,2.4l-4.7,18.7l11.4,2.9l4.7-19
				c19.5,3.7,34.2,2.2,40.3-15.4c5-14.2-0.2-22.4-10.5-27.7C145.1,107,150.7,102.1,152.2,92L152.2,92L152.2,92z M126.1,128.6
				c-3.5,14.2-27.5,6.5-35.2,4.6l6.3-25.2C104.9,110,129.8,113.8,126.1,128.6L126.1,128.6z M129.6,91.8c-3.2,12.9-23.1,6.4-29.6,4.7
				l5.7-22.8C112.2,75.3,133,78.3,129.6,91.8L129.6,91.8z"/>
		</g>
	</g>
</g>
<g id="eth" class="st2">
	<g id="Layer_x0020_1_00000025432574184346428320000008846476098148300735_" class="st3">
		<g id="_1421394342400">
			<g>
				<polygon class="st5" points="106.3,0.5 104.8,5.4 104.8,146.2 106.3,147.6 172.1,109 				"/>
				<polygon class="st6" points="106.3,0.5 40.5,109 106.3,147.6 106.3,79.3 				"/>
				<polygon class="st7" points="106.3,160 105.5,160.9 105.5,211.1 106.3,213.4 172.1,121.4 				"/>
				<polygon class="st6" points="106.3,213.4 106.3,160 40.5,121.4 				"/>
				<polygon class="st8" points="106.3,147.6 172.1,109 106.3,79.3 				"/>
				<polygon class="st9" points="40.5,109 106.3,147.6 106.3,79.3 				"/>
			</g>
		</g>
	</g>
</g>
</svg>
